<svg xmlns="http://www.w3.org/2000/svg" width="1200" height="840" viewBox="0 0 1200 840" fill="none">
<defs>
<linearGradient id="bg" x1="0" y1="0" x2="1200" y2="840"><stop stop-color="#1d4ed8"/><stop offset="1" stop-color="#7c3aed"/></linearGradient>
<linearGradient id="card" x1="0" y1="0" x2="1" y2="1"><stop stop-color="#ffffff" stop-opacity="0.22"/><stop offset="1" stop-color="#ffffff" stop-opacity="0.08"/></linearGradient>
</defs>
<rect width="1200" height="840" rx="40" fill="#0f172a"/>
<rect x="18" y="18" width="1164" height="804" rx="28" fill="url(#bg)"/>
<text x="80" y="92" fill="white" font-family="Microsoft YaHei, Arial" font-size="48" font-weight="800">AI 女装换装案例 · 效果示意</text>
<text x="80" y="132" fill="#dbeafe" font-family="Microsoft YaHei, Arial" font-size="22">非真实作品，仅用于展示页面效果</text>
<g transform="translate(78,180)">
  <rect width="300" height="540" rx="28" fill="url(#card)" stroke="rgba(255,255,255,0.25)"/>
  <rect x="28" y="28" width="244" height="484" rx="22" fill="#f8fafc"/>
  <circle cx="150" cy="124" r="56" fill="#cbd5e1"/>
  <rect x="78" y="186" width="144" height="210" rx="28" fill="#94a3b8"/>
  <rect x="58" y="210" width="184" height="150" rx="22" fill="#334155" opacity="0.28"/>
  <text x="150" y="468" text-anchor="middle" fill="#334155" font-family="Microsoft YaHei, Arial" font-size="24" font-weight="700">原图</text>
</g>
<g transform="translate(450,180)">
  <rect width="300" height="540" rx="28" fill="url(#card)" stroke="rgba(255,255,255,0.25)"/>
  <rect x="28" y="28" width="244" height="484" rx="22" fill="#fff7ed"/>
  <circle cx="150" cy="124" r="56" fill="#fde68a"/>
  <rect x="78" y="186" width="144" height="210" rx="28" fill="#fb7185"/>
  <rect x="58" y="210" width="184" height="150" rx="22" fill="#f97316" opacity="0.26"/>
  <rect x="66" y="428" width="168" height="34" rx="17" fill="#fecdd3"/>
  <text x="150" y="468" text-anchor="middle" fill="#7c2d12" font-family="Microsoft YaHei, Arial" font-size="24" font-weight="700">换装结果</text>
</g>
<g transform="translate(822,180)">
  <rect width="300" height="540" rx="28" fill="url(#card)" stroke="rgba(255,255,255,0.25)"/>
  <rect x="28" y="28" width="244" height="484" rx="22" fill="#eff6ff"/>
  <circle cx="150" cy="124" r="56" fill="#bfdbfe"/>
  <rect x="78" y="186" width="144" height="210" rx="28" fill="#60a5fa"/>
  <rect x="58" y="210" width="184" height="150" rx="22" fill="#1d4ed8" opacity="0.24"/>
  <circle cx="96" cy="96" r="18" fill="#ffffff" opacity="0.65"/>
  <text x="150" y="468" text-anchor="middle" fill="#1e3a8a" font-family="Microsoft YaHei, Arial" font-size="24" font-weight="700">场景版本</text>
</g>
</svg>