<svg xmlns="http://www.w3.org/2000/svg" width="1200" height="840" viewBox="0 0 1200 840" fill="none">
  <defs>
    <linearGradient id="g" x1="0" y1="0" x2="1200" y2="840" gradientUnits="userSpaceOnUse">
      <stop stop-color="#22c55e"/>
      <stop offset="1" stop-color="#06b6d4"/>
    </linearGradient>
    <radialGradient id="r" cx="0" cy="0" r="1" gradientUnits="userSpaceOnUse" gradientTransform="translate(220 140) rotate(35) scale(420 300)">
      <stop stop-color="white" stop-opacity="0.22"/>
      <stop offset="1" stop-color="white" stop-opacity="0"/>
    </radialGradient>
  </defs>
  <rect width="1200" height="840" rx="44" fill="#0f172a"/>
  <rect x="18" y="18" width="1164" height="804" rx="30" fill="url(#g)" opacity="0.88"/>
  <rect x="18" y="18" width="1164" height="804" rx="30" fill="url(#r)"/>
  <circle cx="1020" cy="130" r="88" fill="white" fill-opacity="0.08"/>
  <circle cx="135" cy="725" r="115" fill="white" fill-opacity="0.07"/>
  <rect x="84" y="92" width="182" height="42" rx="21" fill="white" fill-opacity="0.15"/>
  <text x="175" y="120" text-anchor="middle" font-family="Microsoft YaHei, PingFang SC, Arial, sans-serif" font-size="19" font-weight="700" fill="white">作品展示占位图</text>
  <text x="84" y="300" font-family="Microsoft YaHei, PingFang SC, Arial, sans-serif" font-size="72" font-weight="800" fill="white">LoRA / 工作流</text>
  <text x="84" y="356" font-family="Microsoft YaHei, PingFang SC, Arial, sans-serif" font-size="28" font-weight="500" fill="rgba(255,255,255,0.9)">Training / Nodes / Pipeline</text>
  <text x="84" y="428" font-family="Microsoft YaHei, PingFang SC, Arial, sans-serif" font-size="22" font-weight="500" fill="rgba(255,255,255,0.82)">当前为风格占位，不代表真实个人作品</text>
  <g opacity="0.92">
    <rect x="84" y="520" width="312" height="176" rx="24" fill="rgba(255,255,255,0.14)"/>
    <rect x="428" y="520" width="312" height="176" rx="24" fill="rgba(255,255,255,0.10)"/>
    <rect x="772" y="520" width="312" height="176" rx="24" fill="rgba(255,255,255,0.12)"/>
    <rect x="116" y="552" width="248" height="20" rx="10" fill="rgba(255,255,255,0.62)"/>
    <rect x="460" y="552" width="248" height="20" rx="10" fill="rgba(255,255,255,0.46)"/>
    <rect x="804" y="552" width="248" height="20" rx="10" fill="rgba(255,255,255,0.56)"/>
    <rect x="116" y="590" width="168" height="16" rx="8" fill="rgba(255,255,255,0.36)"/>
    <rect x="460" y="590" width="168" height="16" rx="8" fill="rgba(255,255,255,0.28)"/>
    <rect x="804" y="590" width="168" height="16" rx="8" fill="rgba(255,255,255,0.32)"/>
  </g>
</svg>