<svg xmlns="http://www.w3.org/2000/svg" width="1200" height="840" viewBox="0 0 1200 840" fill="none">
<defs><linearGradient id="bg" x1="0" y1="0" x2="1" y2="1"><stop stop-color="#0891b2"/><stop offset="1" stop-color="#14b8a6"/></linearGradient></defs>
<rect width="1200" height="840" rx="40" fill="#0f172a"/><rect x="18" y="18" width="1164" height="804" rx="28" fill="url(#bg)"/>
<text x="78" y="92" fill="white" font-family="Microsoft YaHei, Arial" font-size="48" font-weight="800">AI 写真人像 · 效果示意</text>
<text x="78" y="132" fill="#ccfbf1" font-family="Microsoft YaHei, Arial" font-size="22">突出光影、皮肤质感和风格控制的展示方式</text>
<rect x="92" y="194" width="436" height="556" rx="34" fill="rgba(255,255,255,0.18)" stroke="rgba(255,255,255,0.2)"/>
<rect x="560" y="194" width="548" height="556" rx="34" fill="rgba(255,255,255,0.10)" stroke="rgba(255,255,255,0.2)"/>
<circle cx="310" cy="376" r="130" fill="#cffafe" opacity="0.9"/>
<circle cx="310" cy="340" r="68" fill="#a5f3fc"/>
<rect x="222" y="434" width="176" height="196" rx="48" fill="#155e75" opacity="0.45"/>
<text x="310" y="690" text-anchor="middle" fill="#083344" font-family="Microsoft YaHei, Arial" font-size="28" font-weight="700">单张主视觉</text>
<g transform="translate(610,236)">
  <rect width="448" height="136" rx="24" fill="rgba(255,255,255,0.14)"/>
  <text x="30" y="52" fill="white" font-family="Microsoft YaHei, Arial" font-size="28" font-weight="700">展示建议</text>
  <text x="30" y="92" fill="#e6fffb" font-family="Microsoft YaHei, Arial" font-size="20">• 放原图与结果对比</text>
  <text x="30" y="122" fill="#e6fffb" font-family="Microsoft YaHei, Arial" font-size="20">• 标出风格关键词和应用方向</text>
</g>
<g transform="translate(610,404)">
  <rect width="204" height="274" rx="24" fill="#ecfeff" opacity="0.92"/>
  <rect x="232" width="204" height="274" rx="24" fill="#ccfbf1" opacity="0.92"/>
  <circle cx="102" cy="90" r="48" fill="#99f6e4"/>
  <circle cx="334" cy="90" r="48" fill="#67e8f9"/>
  <rect x="48" y="146" width="108" height="94" rx="26" fill="#0f766e" opacity="0.28"/>
  <rect x="280" y="146" width="108" height="94" rx="26" fill="#0e7490" opacity="0.28"/>
</g>
</svg>