<svg xmlns="http://www.w3.org/2000/svg" width="1200" height="840" viewBox="0 0 1200 840" fill="none">
<defs><linearGradient id="bg" x1="0" y1="0" x2="1" y2="1"><stop stop-color="#22c55e"/><stop offset="1" stop-color="#06b6d4"/></linearGradient></defs>
<rect width="1200" height="840" rx="40" fill="#0f172a"/><rect x="18" y="18" width="1164" height="804" rx="28" fill="url(#bg)"/>
<text x="78" y="92" fill="white" font-family="Microsoft YaHei, Arial" font-size="48" font-weight="800">LoRA 训练 / 工作流节点 · 效果示意</text>
<g transform="translate(88,176)">
<rect width="1024" height="594" rx="34" fill="rgba(15,23,42,0.34)" stroke="rgba(255,255,255,0.2)"/>
<g fill="#e0f2fe" fill-opacity="0.95" stroke="rgba(15,23,42,0.2)">
<rect x="56" y="88" width="220" height="94" rx="20"/><rect x="390" y="88" width="220" height="94" rx="20"/><rect x="726" y="88" width="220" height="94" rx="20"/>
<rect x="56" y="308" width="220" height="94" rx="20"/><rect x="390" y="308" width="220" height="94" rx="20"/><rect x="726" y="308" width="220" height="94" rx="20"/>
</g>
<g stroke="#ecfeff" stroke-width="8" stroke-linecap="round">
<path d="M276 136H390"/><path d="M610 136H726"/><path d="M166 182V308"/><path d="M500 182V308"/><path d="M836 182V308"/><path d="M276 356H390"/><path d="M610 356H726"/>
</g>
<g fill="#0f172a" font-family="Microsoft YaHei, Arial" font-size="22" font-weight="700">
<text x="98" y="144">素材输入</text><text x="430" y="144">模型加载</text><text x="770" y="144">采样生成</text>
<text x="96" y="364">LoRA 叠加</text><text x="430" y="364">效果微调</text><text x="770" y="364">结果输出</text>
</g>
</g>
</svg>