<svg xmlns="http://www.w3.org/2000/svg" width="1200" height="840" viewBox="0 0 1200 840" fill="none">
<defs><linearGradient id="bg" x1="0" y1="0" x2="1" y2="1"><stop stop-color="#7c3aed"/><stop offset="1" stop-color="#ec4899"/></linearGradient></defs>
<rect width="1200" height="840" rx="40" fill="#0f172a"/><rect x="18" y="18" width="1164" height="804" rx="28" fill="url(#bg)"/>
<text x="78" y="92" fill="white" font-family="Microsoft YaHei, Arial" font-size="48" font-weight="800">虚拟人像 / 风格迁移 · 效果示意</text>
<g transform="translate(94,180)">
  <rect width="1010" height="560" rx="34" fill="rgba(255,255,255,0.10)" stroke="rgba(255,255,255,0.18)"/>
  <g transform="translate(46,54)">
    <rect width="286" height="452" rx="28" fill="#fae8ff" opacity="0.95"/>
    <circle cx="143" cy="108" r="58" fill="#e9d5ff"/>
    <rect x="78" y="184" width="130" height="170" rx="32" fill="#a855f7" opacity="0.44"/>
    <text x="143" y="410" text-anchor="middle" fill="#581c87" font-family="Microsoft YaHei, Arial" font-size="24" font-weight="700">动漫风</text>
  </g>
  <g transform="translate(362,54)">
    <rect width="286" height="452" rx="28" fill="#fdf2f8" opacity="0.95"/>
    <circle cx="143" cy="108" r="58" fill="#fbcfe8"/>
    <rect x="78" y="184" width="130" height="170" rx="32" fill="#ec4899" opacity="0.42"/>
    <text x="143" y="410" text-anchor="middle" fill="#831843" font-family="Microsoft YaHei, Arial" font-size="24" font-weight="700">时尚风</text>
  </g>
  <g transform="translate(678,54)">
    <rect width="286" height="452" rx="28" fill="#eef2ff" opacity="0.95"/>
    <circle cx="143" cy="108" r="58" fill="#c7d2fe"/>
    <rect x="78" y="184" width="130" height="170" rx="32" fill="#6366f1" opacity="0.42"/>
    <text x="143" y="410" text-anchor="middle" fill="#312e81" font-family="Microsoft YaHei, Arial" font-size="24" font-weight="700">电影感</text>
  </g>
</g>
</svg>